<svg xmlns="http://www.w3.org/2000/svg" width="15.933" height="16.003" viewBox="0 0 4.216 4.234"><path d="M110.983 142.958v2.336h2.337v-1.024c.115-.076.22-.156.321-.241.024-.02.072-.058.133-.117v1.608a.228.228 0 0 1-.227.228h-2.791a.228.228 0 0 1-.227-.228v-2.79c0-.125.102-.227.227-.227h.76a2.884 2.884 0 0 0-.214.455zm3.707-1.409a2.687 2.687 0 0 0-.281-.028h-.028l-.05-.003h-.003l-.041-.002h-.001c-.753-.026-1.276.198-1.276.198-.714.29-1.205.805-1.426 1.593-.072.255-.05.52-.013.782.004.024.017.06.093.01.152-.412.404-.799.704-1.132.38-.42.806-.755 1.334-.965.097-.039.19-.068.288-.102.003.01-.004.018-.012.02l-.01.004a2.853 2.853 0 0 0-.764.457 5.29 5.29 0 0 0-1.011 1.11c-.334.48-.602.992-.777 1.55 0 0-.031.14.074.039l.465-.579a.067.067 0 0 1 .02-.024.103.103 0 0 1 .036-.02c.212-.08.427-.152.633-.245.276-.126.53-.282.757-.477.025-.019.277-.215.541-.621.004-.005.01-.012.012-.019l.005-.009c.064-.1.13-.214.192-.34l-.533-.073s.603-.085.692-.28l.016-.04c.047-.106.094-.223.147-.32a1.51 1.51 0 0 1 .26-.389c.029-.032 0-.089-.044-.096z" style="fill:#0ff;fill-opacity:1;stroke-width:.00864604" transform="translate(-110.529 -141.514)"/></svg>