<svg xmlns="http://www.w3.org/2000/svg" width="16" height="16" viewBox="0 0 451.296 451.296" style="enable-background:new 0 0 451.296 451.296" xml:space="preserve"><circle style="fill:#45b39c" cx="225.648" cy="225.638" r="225.638"/><path style="opacity:.1;enable-background:new" d="m450.855 239.322-99.451-99.451c-.076-.08-.13-.176-.209-.255l-39.537-39.491a12.776 12.776 0 0 0-9.026-3.76H109.178c-7.052 0-12.834 5.735-12.834 12.834v232.898c0 3.672 1.566 6.958 4.035 9.295l98.236 98.236c8.87 1.06 17.878 1.668 27.034 1.668 120.028 0 218.126-93.724 225.206-211.974z"/><path style="fill:#64798a" d="m351.176 139.612-39.501-39.501a12.823 12.823 0 0 0-9.066-3.755H109.186c-7.081 0-12.821 5.74-12.821 12.821V342.1c0 7.082 5.74 12.822 12.821 12.822H342.11c7.081 0 12.821-5.74 12.821-12.822V148.678c0-3.401-1.351-6.662-3.755-9.066z"/><path style="fill:#fff" d="M310.065 212.47H141.231c-6.129 0-11.098 4.969-11.098 11.098v88.637c0 6.129 4.969 11.098 11.098 11.098h168.833c6.129 0 11.098-4.969 11.098-11.098v-88.637c0-6.129-4.968-11.098-11.097-11.098z"/><path style="fill:#ebf0f3" d="M149.565 233.626h152.177v9.4H149.565zM149.565 263.168h152.177v9.4H149.565zM149.565 292.762h152.177v9.4H149.565zM156.714 96.355v58.059c0 5.443 4.413 9.856 9.856 9.856h118.156c5.443 0 9.856-4.413 9.856-9.856V96.355H156.714z"/><path style="fill:#3a556a" d="M259.491 107.622h15.698v44.022h-15.698z"/></svg>